<svg xmlns="http://www.w3.org/2000/svg" viewBox="0 0 64 64"><title>會</title><rect width="64" height="64" rx="12" fill="#173153"/><path fill="#fff" fill-rule="evenodd" d="M56 18.364 L54.123 22.588 C49.76 21.51 45.345 20.05 40.878 18.207 L40.878 20.189 L23.435 20.189 L23.435 18.103 C19.316 19.928 14.953 21.458 10.347 22.692 L8 18.833 C18.516 16.122 26.277 12.654 31.283 8.43 L36.498 9.708 C36.133 10.16 35.811 10.499 35.533 10.725 C40.487 13.853 47.309 16.4 56 18.364 Z M37.149 16.487 C34.281 14.888 32.534 13.897 31.909 13.514 C30.449 14.609 28.78 15.6 26.903 16.487 Z M51.124 36.146 L13.006 36.146 L13.006 22.353 L51.124 22.353 Z M46.431 32.417 L46.431 26.16 L34.36 26.16 L34.36 32.417 Z M44.398 28.663 C43.216 29.653 41.721 30.688 39.913 31.765 L36.602 29.523 C38.688 28.202 40.148 27.237 40.982 26.629 Z M29.666 32.417 L29.666 26.16 L17.647 26.16 L17.647 32.417 Z M27.32 29.784 L23.957 31.922 C22.67 30.844 21.193 29.793 19.524 28.767 L22.835 26.525 C23.93 27.133 25.425 28.219 27.32 29.784 Z M48.83 55.57 L44.137 55.57 L44.137 53.666 L20.228 53.666 L20.228 55.57 L15.353 55.57 L15.353 38.492 L48.83 38.492 Z M44.137 44.306 L44.137 42.116 L20.228 42.116 L20.228 44.306 Z M44.137 49.964 L44.137 47.618 L20.228 47.618 L20.228 49.964 Z"/></svg>